<?xml version="1.0" encoding="utf-8"?>
<!-- Generator: Adobe Illustrator 16.0.0, SVG Export Plug-In . SVG Version: 6.00 Build 0)  -->
<!DOCTYPE svg PUBLIC "-//W3C//DTD SVG 1.1//EN" "http://www.w3.org/Graphics/SVG/1.1/DTD/svg11.dtd">
<svg version="1.1" xmlns="http://www.w3.org/2000/svg" xmlns:xlink="http://www.w3.org/1999/xlink" x="0px" y="0px" width="1000px"
	 height="560px" viewBox="0 0 1000 560" enable-background="new 0 0 1000 560" xml:space="preserve">
<g id="Layer_1">
	<g>
		<path d="M318.815,409.748c-3.463-6.745-8.021-12.396-16.223-12.396c-4.01,0-6.744,1.276-6.744,1.276v39.008
			c0,8.385,3.281,10.755,10.572,11.849l6.562,0.911v5.286c0,0-15.676-0.547-26.249-0.547c-11.301,0-24.973,0.547-24.973,0.547
			v-5.286l4.739-0.911c7.838-1.459,11.849-7.292,11.849-17.864v-85.49c0-8.385-3.099-10.754-10.572-11.848l-6.016-0.912v-5.285
			c0,0,15.129,0.547,25.702,0.547c8.203,0,14.765-0.547,22.968-0.547c23.149,0,42.289,12.577,42.289,34.815
			c0,22.603-21.509,30.623-28.253,32.081c3.646,2.37,6.562,5.651,10.937,12.76l13.853,22.785
			c21.874,35.91,51.95,64.346,100.437,64.346c21.692,0,40.103-5.833,40.103-15.494c0,0,0.547-0.182,1.275-0.182
			c1.641,0,4.739,0.729,4.739,4.739c0,12.213-32.081,17.316-48.122,17.316c-51.95,0-91.141-20.233-114.473-64.346L318.815,409.748z
			 M295.848,335.559v58.148c3.099-2.188,7.291-3.646,12.577-3.646c4.193,0,7.474,0.729,9.661,1.641
			c7.291-2.006,15.676-13.489,15.676-28.437c0-19.322-11.666-28.982-28.436-28.982C301.134,334.283,297.853,335.012,295.848,335.559
			z"/>
		<path d="M436.202,443.47c-5.469,0.729-16.041,15.13-30.441,15.13c-16.223,0-23.878-10.573-23.878-24.062V390.79
			c0-8.021-3.099-10.937-12.578-10.937v-4.922l26.431-2.916l1.823,1.822v56.325c0,10.937,6.562,15.677,13.854,15.677
			c11.848,0,16.041-5.651,24.791-7.656V390.79c0-8.021-3.099-10.937-12.578-10.937v-4.922l26.431-2.916l1.823,1.822v61.43
			c0,8.02,2.917,10.937,13.671,10.937l0.912,4.01c-15.312,1.276-29.165,8.386-29.165,8.386L436.202,443.47z"/>
		<path d="M560.88,356.521c0,20.416-15.312,28.254-24.79,30.988c20.962,3.646,34.451,17.863,34.451,34.086
			c0,19.504-13.671,34.087-40.831,34.087c-9.114,0-16.77-0.547-28.436-0.547c-15.494,0-24.973,0.547-24.973,0.547v-5.286l4.74-0.911
			c7.838-1.459,11.848-7.292,11.848-17.864v-85.49c0-8.385-3.099-10.754-10.572-11.848l-6.015-0.912v-5.285
			c0,0,10.026,0.547,25.702,0.547c9.479,0,14.036-0.547,20.78-0.547C547.756,328.086,560.88,339.934,560.88,356.521z
			 M510.388,386.416c2.917-0.365,6.016-0.547,8.75-0.547c5.469,0,9.843,0.547,9.843,0.547c8.932-6.016,14.4-16.771,14.4-29.713
			c0-13.67-9.661-22.42-23.514-22.42c-4.375,0-7.474,0.729-9.479,1.275V386.416z M510.388,437.637
			c0,7.838,5.833,11.849,14.036,11.849c16.77,0,27.16-11.119,27.16-26.249c0-29.165-28.801-31.534-37.732-31.534
			c-2.005,0-3.464,0.182-3.464,0.182V437.637z"/>
		<path d="M627.959,450.761v4.922c0,0-9.296-0.547-23.514-0.547c-13.124,0-22.604,0.547-22.604,0.547v-4.922l5.104-0.729
			c5.468-0.729,9.661-5.286,9.661-12.213v-43.565c0-7.838-3.1-10.938-13.672-10.938l-1.094-4.01
			c16.952-1.641,30.441-8.385,30.441-8.385v14.582c3.281-0.729,12.577-14.765,24.243-14.765c8.021,0,12.942,4.375,12.942,11.484
			c0,6.197-4.192,10.207-10.025,10.207c-1.823,0-3.464-0.364-5.286-0.911c0,0,0.547-1.641,0.547-3.646
			c0-2.917-1.823-5.469-6.562-5.469c-6.016,0-12.03,7.109-15.858,8.203v48.669c0,8.567,1.276,10.208,7.109,10.755L627.959,450.761z"
			/>
		<path d="M741.338,412.664c0,23.332-16.77,45.936-45.935,45.936c-22.238,0-40.467-15.494-40.467-41.925
			c0-23.332,16.77-45.936,46.117-45.936C722.928,370.739,741.338,386.416,741.338,412.664z M724.386,416.31
			c0-24.79-13.854-38.279-28.254-38.279c-17.134,0-24.243,14.947-24.243,34.998c0,24.791,13.854,38.462,28.254,38.462
			C717.459,451.49,724.386,436.36,724.386,416.31z"/>
	</g>
	<g>
		<path d="M271.713,514.535h-2.438c-3.398,0-5.135,1.071-5.911,3.62l-0.923-0.185l0.406-5.541h0.887c0,0,0.295,0.591,1.478,0.591
			h15.811c3.288,0,6.575-1.847,6.575-1.847v13.225c0.887-0.258,3.399-2.733,6.317-2.733c3.288,0,4.839,2.143,4.839,4.876v9.014
			c0,1.736,0.258,2.032,1.44,2.18l1.182,0.148v0.997c0,0-2.475-0.11-4.063-0.11c-1.81,0-4.433,0.11-4.433,0.11v-0.997l0.739-0.148
			c1.146-0.222,1.958-1.071,1.958-2.475v-8.312c0-1.995-0.96-3.029-2.881-3.029c-1.958,0-3.694,1.256-5.098,1.515v10.121
			c0,1.736,0.259,2.069,1.441,2.18l1.182,0.148v0.997c0,0-2.549-0.11-4.211-0.11c-1.662,0-4.581,0.11-4.581,0.11v-0.997l1.034-0.148
			c1.108-0.147,1.958-1.071,1.958-2.475v-18.36c0-1.736-0.776-2.364-2.881-2.364h-6.28v20.688c0,1.699,0.887,2.18,2.364,2.401
			l1.182,0.185v1.071c0,0-2.512-0.11-5.394-0.11c-2.585,0-5.246,0.11-5.246,0.11v-1.071l0.924-0.185
			c1.699-0.333,2.623-1.478,2.623-3.62V514.535z"/>
		<path d="M317.221,528.24h-10.824c0,0-0.074,0.592-0.074,1.626c0,4.617,2.327,7.203,6.169,7.203c2.18,0,3.546-0.517,4.655-1.107
			l0.295,0.701c-1.515,1.699-3.657,2.808-6.501,2.808c-5.246,0-7.869-3.768-7.869-8.496s3.436-9.31,8.94-9.31
			c3.879,0,5.8,2.217,5.8,6.059L317.221,528.24z M314.561,526.763c0,0,0.037-0.258,0.037-0.554c0-2.29-1.33-3.251-3.362-3.251
			c-2.216,0-4.174,1.699-4.691,4.248L314.561,526.763z"/>
		<path d="M344.48,529.164l2.808,4.618c1.663,2.696,3.362,4.544,6.945,4.544v0.775c0,0-1.146,0.369-2.808,0.369
			c-3.177,0-5.615-1.071-7.389-4.396l-2.918-5.505c-0.702-1.366-1.625-2.512-3.288-2.512c-0.812,0-1.367,0.259-1.367,0.259v7.905
			c0,1.699,0.665,2.18,2.143,2.401l1.33,0.185v1.071c0,0-3.177-0.11-5.32-0.11c-2.291,0-5.061,0.11-5.061,0.11v-1.071l0.96-0.185
			c1.588-0.296,2.401-1.478,2.401-3.62v-17.326c0-1.699-0.628-2.18-2.143-2.401l-1.219-0.185v-1.071c0,0,3.066,0.111,5.209,0.111
			c1.662,0,2.992-0.111,4.654-0.111c4.692,0,8.571,2.549,8.571,7.056c0,4.581-4.359,6.207-5.726,6.502
			C343.003,527.059,343.594,527.724,344.48,529.164z M336.464,514.535v11.784c0.628-0.442,1.478-0.738,2.549-0.738
			c0.85,0,1.515,0.147,1.958,0.332c1.478-0.406,3.177-2.733,3.177-5.763c0-3.916-2.364-5.874-5.763-5.874
			C337.536,514.276,336.871,514.425,336.464,514.535z"/>
		<path d="M366.569,536.405c-1.108,0.147-3.25,3.065-6.169,3.065c-3.288,0-4.839-2.143-4.839-4.876v-8.866
			c0-1.625-0.628-2.217-2.549-2.217v-0.997l5.356-0.591l0.369,0.369v11.415c0,2.217,1.33,3.177,2.808,3.177
			c2.401,0,3.251-1.145,5.024-1.551v-9.605c0-1.625-0.628-2.217-2.549-2.217v-0.997l5.356-0.591l0.37,0.369v12.449
			c0,1.626,0.591,2.217,2.771,2.217l0.185,0.812c-3.103,0.259-5.911,1.699-5.911,1.699L366.569,536.405z"/>
		<path d="M379.016,523.955c1.515-0.443,2.771-2.29,5.615-2.29c4.396,0,6.945,3.398,6.945,8.238c0,4.913-3.251,9.567-10.27,9.567
			c-1.478,0-2.771-0.222-3.989-0.665l-1.552,1.071l-0.591-0.369c0.665-1.44,0.665-2.586,0.665-4.987v-18.581
			c0-1.626-0.628-2.254-2.771-2.254l-0.222-0.812c3.436-0.332,6.169-1.699,6.169-1.699V523.955z M379.016,525.026v10.233
			c0,1.552,0.812,2.881,3.214,2.881c3.214,0,6.058-2.622,6.058-7.24c0-3.546-1.514-7.167-5.43-7.167
			C381.417,523.733,379.977,524.842,379.016,525.026z"/>
		<path d="M398.334,523.955c1.515-0.443,2.771-2.29,5.615-2.29c4.396,0,6.945,3.398,6.945,8.238c0,4.913-3.251,9.567-10.27,9.567
			c-1.478,0-2.771-0.222-3.989-0.665l-1.552,1.071l-0.591-0.369c0.665-1.44,0.665-2.586,0.665-4.987v-18.581
			c0-1.626-0.628-2.254-2.771-2.254l-0.222-0.812c3.436-0.332,6.169-1.699,6.169-1.699V523.955z M398.334,525.026v10.233
			c0,1.552,0.812,2.881,3.214,2.881c3.214,0,6.058-2.622,6.058-7.24c0-3.546-1.514-7.167-5.43-7.167
			C400.735,523.733,399.295,524.842,398.334,525.026z"/>
		<path d="M427.405,528.24h-10.824c0,0-0.074,0.592-0.074,1.626c0,4.617,2.327,7.203,6.169,7.203c2.18,0,3.546-0.517,4.655-1.107
			l0.295,0.701c-1.515,1.699-3.657,2.808-6.501,2.808c-5.246,0-7.869-3.768-7.869-8.496s3.436-9.31,8.94-9.31
			c3.879,0,5.8,2.217,5.8,6.059L427.405,528.24z M424.746,526.763c0,0,0.037-0.258,0.037-0.554c0-2.29-1.33-3.251-3.362-3.251
			c-2.216,0-4.174,1.699-4.691,4.248L424.746,526.763z"/>
		<path d="M439.409,537.883v0.997c0,0-1.884-0.11-4.765-0.11c-2.66,0-4.581,0.11-4.581,0.11v-0.997l1.035-0.148
			c1.108-0.147,1.958-1.071,1.958-2.475v-8.829c0-1.589-0.628-2.217-2.771-2.217l-0.222-0.812c3.436-0.332,6.169-1.699,6.169-1.699
			v2.955c0.665-0.147,2.549-2.992,4.913-2.992c1.625,0,2.623,0.887,2.623,2.327c0,1.256-0.85,2.069-2.032,2.069
			c-0.37,0-0.702-0.074-1.071-0.185c0,0,0.111-0.333,0.111-0.739c0-0.591-0.37-1.108-1.33-1.108c-1.219,0-2.438,1.44-3.214,1.662
			v9.863c0,1.736,0.259,2.069,1.441,2.18L439.409,537.883z"/>
		<path d="M471.989,518.783c0,4.138-3.103,5.727-5.024,6.28c4.249,0.739,6.982,3.62,6.982,6.908c0,3.953-2.771,6.908-8.275,6.908
			c-1.847,0-3.398-0.11-5.763-0.11c-3.14,0-5.061,0.11-5.061,0.11v-1.071l0.96-0.185c1.588-0.296,2.401-1.478,2.401-3.62v-17.326
			c0-1.699-0.628-2.18-2.143-2.401l-1.219-0.185v-1.071c0,0,2.032,0.111,5.209,0.111c1.921,0,2.844-0.111,4.211-0.111
			C469.329,513.021,471.989,515.422,471.989,518.783z M461.756,524.842c0.591-0.073,1.219-0.11,1.773-0.11
			c1.108,0,1.995,0.11,1.995,0.11c1.81-1.219,2.918-3.398,2.918-6.021c0-2.771-1.958-4.544-4.766-4.544
			c-0.887,0-1.515,0.148-1.921,0.259V524.842z M461.756,535.223c0,1.589,1.182,2.401,2.844,2.401c3.399,0,5.504-2.254,5.504-5.319
			c0-5.911-5.836-6.392-7.647-6.392c-0.406,0-0.702,0.037-0.702,0.037V535.223z"/>
		<path d="M485.581,537.883v0.997c0,0-1.884-0.11-4.765-0.11c-2.66,0-4.581,0.11-4.581,0.11v-0.997l1.035-0.148
			c1.108-0.147,1.958-1.071,1.958-2.475v-8.829c0-1.589-0.628-2.217-2.771-2.217l-0.222-0.812c3.436-0.332,6.169-1.699,6.169-1.699
			v2.955c0.665-0.147,2.549-2.992,4.913-2.992c1.626,0,2.623,0.887,2.623,2.327c0,1.256-0.85,2.069-2.032,2.069
			c-0.369,0-0.701-0.074-1.071-0.185c0,0,0.111-0.333,0.111-0.739c0-0.591-0.369-1.108-1.33-1.108c-1.219,0-2.438,1.44-3.214,1.662
			v9.863c0,1.736,0.259,2.069,1.44,2.18L485.581,537.883z"/>
		<path d="M508.558,530.162c0,4.729-3.398,9.309-9.31,9.309c-4.507,0-8.2-3.14-8.2-8.496c0-4.729,3.398-9.31,9.346-9.31
			C504.826,521.665,508.558,524.842,508.558,530.162z M505.122,530.9c0-5.023-2.808-7.758-5.726-7.758
			c-3.473,0-4.913,3.029-4.913,7.093c0,5.024,2.807,7.795,5.726,7.795C503.719,538.03,505.122,534.964,505.122,530.9z"/>
		<path d="M516.461,535.555c0,1.736,0.295,2.032,1.44,2.18l1.183,0.148v0.997c0,0-1.958-0.11-4.175-0.11
			c-2.733,0-4.581,0.11-4.581,0.11v-0.997l0.998-0.148c1.107-0.147,1.958-1.071,1.958-2.475v-19.32c0-1.626-0.629-2.254-2.771-2.254
			l-0.185-0.812c3.398-0.332,6.133-1.699,6.133-1.699v17.99h1.662l2.808-3.73c0.222-0.333,0.369-0.592,0.369-1.035
			c0-0.554-0.554-0.923-1.478-1.034l-0.775-0.11v-0.998c0,0,1.884,0.111,5.023,0.111c2.845,0,4.803-0.111,4.803-0.111v0.998
			l-0.85,0.073c-2.401,0.222-4.063,0.665-5.431,2.364l-2.401,3.029l5.283,6.871c1.256,1.626,2.18,2.217,3.657,2.217
			c0.48,0,0.887-0.074,1.034-0.111v0.813c0,0-1.034,0.628-2.696,0.628c-2.697,0-4.322-1.33-6.059-3.769l-3.029-4.285
			c-0.443-0.628-0.924-0.923-1.921-0.923V535.555z"/>
		<path d="M539.99,537.883v0.997c0,0-2.549-0.11-4.175-0.11c-1.699,0-4.58,0.11-4.58,0.11v-0.997l0.997-0.148
			c1.108-0.147,1.958-1.071,1.958-2.475v-8.829c0-1.589-0.628-2.217-2.771-2.217l-0.185-0.812c3.398-0.332,6.132-1.699,6.132-1.699
			v13.853c0,1.736,0.296,2.032,1.441,2.18L539.99,537.883z M535.779,512.504c1.219,0,2.18,0.96,2.18,2.18
			c0,1.182-0.961,2.143-2.18,2.143c-1.183,0-2.143-0.961-2.143-2.143C533.637,513.464,534.597,512.504,535.779,512.504z"/>
		<path d="M561.821,537.883v0.997c0,0-2.438-0.11-4.063-0.11c-1.81,0-4.433,0.11-4.433,0.11v-0.997l0.775-0.148
			c1.108-0.222,1.958-1.071,1.958-2.475v-8.312c0-1.995-0.997-3.029-2.918-3.029c-1.958,0-3.362,1.256-4.766,1.515v10.121
			c0,1.736,0.259,2.069,1.44,2.18l1.183,0.148v0.997c0,0-2.549-0.11-4.212-0.11c-1.662,0-4.58,0.11-4.58,0.11v-0.997l1.034-0.148
			c1.108-0.147,1.958-1.071,1.958-2.475v-8.829c0-1.589-0.628-2.217-2.771-2.217l-0.222-0.812c3.436-0.332,6.169-1.699,6.169-1.699
			v2.696c0.887-0.258,3.104-2.733,5.984-2.733c3.288,0,4.84,2.143,4.84,4.876v9.014c0,1.736,0.295,2.032,1.478,2.18L561.821,537.883
			z"/>
		<path d="M577.815,543.239c0-2.401-2.327-2.919-6.132-2.919c-3.916,0-6.835-0.406-6.835-3.14c0-2.217,2.18-3.104,3.657-3.361
			c-2.622-0.702-4.544-2.623-4.544-5.727c0-3.214,2.734-6.428,7.389-6.428c1.552,0,2.586,0.259,3.953,1.034
			c0.665,0.111,1.366,0.222,2.031,0.222c1.293,0,2.513-0.259,3.362-0.738c0.332,0.258,0.517,0.701,0.517,1.108
			c0,0.738-0.591,1.551-1.958,1.551c-1.256,0-1.884-0.775-2.696-1.034c0.85,1.034,1.33,2.29,1.33,3.694
			c0,2.808-1.958,6.132-6.539,6.465c-1.773,0.369-3.657,0.812-3.657,2.031c0,1.108,1.404,1.367,4.507,1.367
			c5.209,0,8.201,1.108,8.201,4.729c0,3.805-4.544,6.206-10.307,6.206c-3.361,0-6.908-1.366-6.908-4.47
			c0-1.995,1.44-2.808,2.66-2.808c0.738,0,1.366,0.332,1.699,0.812c-0.739,0.518-1.146,1.22-1.146,2.069
			c0,2.253,2.327,2.955,5.283,2.955C574.232,546.859,577.815,545.898,577.815,543.239z M567.065,527.612
			c0,3.436,1.995,5.136,4.101,5.136c2.143,0,3.62-1.589,3.62-4.729c0-2.513-1.478-5.099-4.174-5.099
			C568.1,522.921,567.065,524.879,567.065,527.612z"/>
		<path d="M614.716,519.448h-1.071c-0.665-3.287-3.62-5.504-8.423-5.504c-5.726,0-9.494,5.024-9.494,11.525
			c0,8.238,5.135,12.523,10.935,12.523c4.212,0,6.761-2.364,7.463-5.615l1.071,0.074l-0.665,5.615c-2.623,0-4.95,1.403-8.977,1.403
			c-7.426,0-13.706-3.73-13.706-12.893c0-7.314,5.024-14.074,14.075-14.074c3.324,0,6.391,0.997,8.792,0.997V519.448z"/>
		<path d="M635.77,530.162c0,4.729-3.398,9.309-9.31,9.309c-4.507,0-8.201-3.14-8.201-8.496c0-4.729,3.399-9.31,9.347-9.31
			C632.038,521.665,635.77,524.842,635.77,530.162z M632.334,530.9c0-5.023-2.808-7.758-5.726-7.758
			c-3.473,0-4.913,3.029-4.913,7.093c0,5.024,2.807,7.795,5.726,7.795C630.931,538.03,632.334,534.964,632.334,530.9z"/>
		<path d="M667.647,538.88c0,0-2.475-0.11-4.063-0.11c-1.81,0-4.433,0.11-4.433,0.11v-0.997l0.738-0.148
			c1.146-0.222,1.958-1.071,1.958-2.475v-8.312c0-1.995-0.96-3.029-2.881-3.029c-1.958,0-3.178,1.256-4.581,1.515
			c0.074,0.369,0.11,0.738,0.11,1.107v9.014c0,1.736,0.259,2.032,1.441,2.18l1.182,0.148v0.997c0,0-2.475-0.11-4.063-0.11
			c-1.811,0-4.433,0.11-4.433,0.11v-0.997l0.738-0.148c1.146-0.222,1.958-1.071,1.958-2.475v-8.312c0-1.995-0.96-3.029-2.881-3.029
			c-1.958,0-2.993,1.256-4.396,1.515v10.121c0,1.736,0.259,2.069,1.44,2.18l1.183,0.148v0.997c0,0-2.549-0.11-4.212-0.11
			c-1.662,0-4.58,0.11-4.58,0.11v-0.997l1.034-0.148c1.108-0.147,1.958-1.071,1.958-2.475v-8.829c0-1.589-0.628-2.217-2.771-2.217
			l-0.222-0.812c3.436-0.332,6.169-1.699,6.169-1.699v2.696c0.887-0.258,2.696-2.733,5.578-2.733c2.364,0,3.842,1.071,4.47,2.733
			c0.998-0.222,3.214-2.733,6.096-2.733c3.288,0,4.839,2.143,4.839,4.876v9.014c0,1.736,0.259,2.032,1.441,2.18l1.182,0.148V538.88z
			"/>
		<path d="M677.656,547.154v0.961h-9.198v-0.997l0.924-0.148c1.108-0.185,1.958-1.107,1.958-2.475v-18.064
			c0-1.589-0.628-2.217-2.771-2.217l-0.185-0.812c3.398-0.332,6.132-1.699,6.132-1.699v2.253c1.515-0.443,2.771-2.29,5.652-2.29
			c4.396,0,6.908,3.398,6.908,8.238c0,4.913-3.251,9.567-10.233,9.567c-1.403,0-2.327-0.185-2.327-0.185v5.505
			c0,1.735,0.332,2.068,1.403,2.179L677.656,547.154z M674.517,525.026v10.233c0,1.552,0.812,2.881,3.214,2.881
			c3.214,0,6.059-2.622,6.059-7.24c0-3.546-1.515-7.167-5.431-7.167C676.918,523.733,675.514,524.842,674.517,525.026z"/>
		<path d="M699.006,526.652c0-1.958-0.665-3.436-2.992-3.436c-1.773,0-2.476,0.96-2.476,1.884c0,0.591,0.222,1.071,0.48,1.367
			c-0.48,0.369-1.108,0.554-1.773,0.554c-1.182,0-1.957-0.628-1.957-1.699c0-1.995,3.14-3.657,6.538-3.657
			c3.805,0,5.246,2.217,5.246,5.652c0,2.327-0.185,4.617-0.185,7.093c0,1.847,0.222,3.029,1.736,3.029
			c0.923,0,1.514-0.37,1.514-0.37l0.333,0.628c0,0-1.108,1.773-3.251,1.773c-1.736,0-2.66-1.108-2.955-2.18
			c-1.515,0.333-2.586,2.18-5.541,2.18c-2.66,0-4.249-1.33-4.249-3.768c0-4.138,5.135-5.356,9.421-5.356
			C698.896,530.347,699.006,527.871,699.006,526.652z M695.053,537.624c1.773,0,2.438-0.776,3.953-1.146
			c0,0-0.185-1.034-0.185-2.401c0-1.329,0.037-2.549,0.037-2.549c-3.325,0-6.133,1.22-6.133,3.769
			C692.726,536.922,693.797,537.624,695.053,537.624z"/>
		<path d="M726.119,537.883v0.997c0,0-2.438-0.11-4.063-0.11c-1.81,0-4.433,0.11-4.433,0.11v-0.997l0.775-0.148
			c1.108-0.222,1.958-1.071,1.958-2.475v-8.312c0-1.995-0.997-3.029-2.918-3.029c-1.958,0-3.362,1.256-4.766,1.515v10.121
			c0,1.736,0.259,2.069,1.44,2.18l1.183,0.148v0.997c0,0-2.549-0.11-4.212-0.11c-1.662,0-4.58,0.11-4.58,0.11v-0.997l1.034-0.148
			c1.108-0.147,1.958-1.071,1.958-2.475v-8.829c0-1.589-0.628-2.217-2.771-2.217l-0.222-0.812c3.436-0.332,6.169-1.699,6.169-1.699
			v2.696c0.887-0.258,3.104-2.733,5.984-2.733c3.288,0,4.84,2.143,4.84,4.876v9.014c0,1.736,0.295,2.032,1.478,2.18L726.119,537.883
			z"/>
		<path d="M733.653,523.254l-0.923,0.147c-0.739,0.11-1.108,0.369-1.108,0.85c0,0.074,0,0.259,0.074,0.518l3.287,10.639
			l4.063-10.417c0.111-0.333,0.185-0.555,0.185-0.702c0-0.443-0.295-0.776-0.96-0.887l-0.997-0.147v-0.998
			c0,0,1.551,0.111,3.509,0.111c1.626,0,2.845-0.111,2.845-0.111v0.998l-0.554,0.11c-1.108,0.222-1.921,0.776-2.513,2.217
			l-6.908,16.365c-1.256,2.992-3.028,5.135-5.984,5.135c-2.659,0-3.398-1.367-3.398-2.512c0-0.813,0.628-1.7,1.995-1.7
			c0.222,0,0.517,0.037,0.591,0.074c-0.037,0.111-0.074,0.259-0.074,0.406c0,1.034,0.628,1.441,1.663,1.441
			c1.699,0,3.103-0.998,4.026-3.325l0.924-2.29l-4.766-13.484c-0.591-1.699-1.256-2.143-2.18-2.29l-0.997-0.147v-0.998
			c0,0,2.808,0.111,4.47,0.111c1.44,0,3.73-0.111,3.73-0.111V523.254z"/>
	</g>
</g>
<g id="Layer_2" display="none">
	<g>
		<g display="inline">
			<path d="M588.209,208.592c23.75-32.627,30.356-73.638,13.713-110.923c-14.793-33.142-46.226-58.171-81.731-65.379
				c-42.134-8.554-83.756,11.206-109.36,44.627c-13.749,17.946-22.085,39.068-22.864,61.753
				c-0.794,23.173,6.997,45.819,18.665,65.564c10.208,17.275,23.719,33.467,41.823,42.748c14.637,7.503,31.148,8.324,47.093,5.484
				c35.363-6.298,65.774-28.386,101.213-34.523c1.904-0.33,1.095-3.22-0.797-2.893c-22.717,3.933-43.651,14.379-64.831,23.003
				c-20.862,8.495-43.636,16.266-66.368,11.549c-27.047-5.612-45.948-29.27-58.604-52.244
				c-11.756-21.339-17.673-45.954-14.191-70.245c6.7-46.745,48.701-86.833,95.151-93.024c38.449-5.125,76.816,13.667,99.828,44.162
				c13.116,17.382,20.809,38.554,21.532,60.329c0.825,24.85-8.392,48.618-22.862,68.498
				C584.479,208.645,587.083,210.139,588.209,208.592L588.209,208.592z"/>
		</g>
	</g>
	<path display="inline" d="M597.852,92.077c-17.427-33.788-52.196-56.789-89.886-60.429c-43.215-4.174-87.017,18.959-108.912,56.176
		c-19.602,33.317-18.471,75.797-0.827,109.626c17.932,34.381,55.489,58.64,94.252,59.985c32.657,1.134,66.467-13.872,88.994-37.285
		c1.341-1.394-0.777-3.518-2.121-2.121c-27.728,28.818-66.953,43.11-108.285,30.443c-43.204-13.24-77.435-52.019-80.056-96.449
		c-2.785-47.208,17.931-79.789,57.041-101.135c37.966-20.723,81.29-15.687,115.333,11c20.481,16.056,35.302,35.244,40.282,60.777
		c5.611,28.771,1.965,61.41-19.428,83.409c-7.156,7.359-14.813,9.534-29.2,9.534c-35.405,0-57.367-20.764-73.34-46.985
		l-10.116-16.638c-3.194-5.191-5.324-7.587-7.986-9.317c4.925-1.064,20.631-6.921,20.631-23.426
		c0-16.239-13.976-25.423-30.88-25.423c-5.99,0-11.187,0.399-17.176,0.399c-7.721,0-19.173-0.399-19.173-0.399v3.86l4.336,0.666
		c5.457,0.798,7.664,2.529,7.664,8.651v62.425c0,7.72-2.872,11.979-8.595,13.044L417,183.133v3.86c0,0,9.782-0.399,18.034-0.399
		c7.72,0,18.966,0.399,18.966,0.399v-3.86l-4.536-0.666c-5.324-0.799-7.464-2.529-7.464-8.652v-28.484c0,0,2.347-0.932,5.275-0.932
		c5.99,0,9.493,4.126,12.021,9.051l10.603,19.833c17.037,32.211,45.886,48.967,83.82,48.967c10.155,0,24.031-1.632,33.493-11.526
		C615.875,180.749,617.135,129.465,597.852,92.077z M458.939,140.274c-1.598-0.666-4.343-1.198-7.405-1.198
		c-3.86,0-7.534,1.065-9.534,2.662V99.278c1-0.399,4.21-0.932,7.271-0.932c12.246,0,20.939,7.054,20.939,21.163
		C470.211,130.424,464.263,138.81,458.939,140.274z"/>
	<path display="inline" d="M562.49,114.585c0,14.907-11.181,20.631-18.102,22.627c15.307,2.662,25.156,13.044,25.156,24.89
		c0,14.242-9.982,24.89-29.814,24.89c-6.655,0-12.246-0.399-20.765-0.399c-11.313,0-18.234,0.399-18.234,0.399v-3.86l3.46-0.666
		c5.724-1.065,8.652-5.324,8.652-13.044v-62.425c0-6.123-2.263-7.853-7.721-8.651l-4.392-0.666v-3.86c0,0,7.32,0.399,18.767,0.399
		c6.922,0,10.249-0.399,15.174-0.399C552.907,93.821,562.49,102.473,562.49,114.585z M525.621,136.414
		c2.13-0.266,4.393-0.399,6.389-0.399c3.993,0,7.188,0.399,7.188,0.399c6.522-4.392,10.516-12.245,10.516-21.695
		c0-9.983-7.055-16.372-17.17-16.372c-3.195,0-5.458,0.532-6.922,0.932V136.414z M525.621,173.815c0,5.724,4.26,8.652,10.249,8.652
		c12.245,0,19.832-8.119,19.832-19.167c0-21.296-21.03-23.026-27.552-23.026c-1.465,0-2.529,0.133-2.529,0.133V173.815z"/>
</g>
<g id="Layer_3">
	<g id="Logo_x5F_2">
		<g>
			<path d="M457.417,161.717c-2.748,0-5.055,0.479-6.055,0.837v38.124c2-1.435,4.621-2.39,8.086-2.39
				c2.75,0,4.821,0.478,6.255,1.076c4.78-1.315,10.317-8.844,10.317-18.643C476.021,168.051,468.411,161.717,457.417,161.717z"/>
			<g>
				<path d="M537.685,195.896c5.854-3.944,9.439-10.995,9.439-19.479c0-8.963-6.398-14.7-15.48-14.7
					c-2.869,0-5.281,0.479-6.281,0.837v33.342c2-0.239,4.01-0.358,5.803-0.358C534.751,195.539,537.685,195.896,537.685,195.896z"/>
				<path d="M527.7,199.362c-1.313,0-2.338,0.12-2.338,0.12v29.996c0,5.139,3.891,7.768,9.268,7.768
					c10.996,0,17.808-7.289,17.808-17.209C552.437,200.916,533.556,199.362,527.7,199.362z"/>
				<path d="M578.918,256.732c12.007-16.27,19.113-36.361,19.113-58.086c0-54.054-43.977-98.031-98.031-98.031
					c-54.054,0-98.031,43.977-98.031,98.031c0,54.055,43.978,98.031,98.031,98.031c26.44,0,50.466-10.525,68.115-27.603
					c-6.069,1.444-12.838,2.11-17.521,2.11c-34.061,0-59.755-13.266-75.052-42.186l-9.439-17.808
					c-2.271-4.422-5.1-8.126-10.479-8.126c-2.629,0-4.262,0.836-4.262,0.836v25.575c0,5.497,2.034,7.051,6.814,7.768l4.186,0.599
					v3.466c0,0-10.486-0.358-17.418-0.358c-7.41,0-16.582,0.358-16.582,0.358v-3.466l3.17-0.599c5.139-0.956,7.83-4.78,7.83-11.711
					v-56.049c0-5.497-2.094-7.051-6.993-7.768l-4.007-0.597v-3.466c0,0,10.086,0.358,17.018,0.358c5.377,0,9.765-0.358,15.142-0.358
					c15.178,0,27.768,8.246,27.768,22.826c0,14.819-14.081,20.077-18.503,21.033c2.392,1.554,4.312,3.705,7.182,8.365l9.088,14.938
					c14.341,23.543,34.062,42.187,65.851,42.187c9.419,0,17.892-1.68,22.542-4.651c1.258-1.468,2.473-2.974,3.645-4.515
					L578.918,256.732z M538.162,241.31c-5.975,0-10.886-0.358-18.534-0.358c-10.157,0-16.266,0.358-16.266,0.358v-3.466l3.17-0.598
					c5.139-0.957,7.83-4.781,7.83-11.712v-56.049c0-5.497-2.094-7.051-6.993-7.768l-4.007-0.597v-3.466
					c0,0,6.465,0.358,16.742,0.358c6.215,0,9.147-0.358,13.57-0.358c16.371,0,24.949,7.768,24.949,18.643
					c0,13.385-10.052,18.523-16.267,20.316c13.743,2.39,22.58,11.711,22.58,22.348C564.938,231.748,555.969,241.31,538.162,241.31z"
					/>
			</g>
		</g>
		<path d="M500,88.615c-60.672,0-110.031,49.359-110.031,110.031S439.328,308.678,500,308.678s110.031-49.36,110.031-110.031
			S560.672,88.615,500,88.615z M500,301.678c-56.812,0-103.031-46.221-103.031-103.031c0-56.811,46.221-103.031,103.031-103.031
			c56.812,0,103.031,46.219,103.031,103.031C603.031,255.459,556.812,301.678,500,301.678z"/>
	</g>
</g>
</svg>
